<svg xmlns="http://www.w3.org/2000/svg" width="1024" height="1024" viewBox="0 0 1024 1024" version="1.1" xmlns:xlink="http://www.w3.org/1999/xlink"><path d="M502.485 72.405a42.667 42.667 0 0 0 -26.453 18.773c-12.373 18.517 -10.24 43.349 5.035 58.667 3.072 3.072 8.405 6.955 13.44 9.771 1.963 1.109 2.005 2.475 2.219 80.853 0.213 75.349 0.128 79.701 -1.493 79.061a136.533 136.533 0 0 0 -30.976 -6.272l-10.24 -0.555v-22.272c0 -12.544 -0.427 -23.296 -0.981 -24.619s-6.059 -9.344 -12.245 -17.963 -16.128 -22.443 -22.059 -30.805l-10.837 -15.147 2.987 -3.413c8.192 -9.301 11.648 -19.712 10.88 -32.768a32.427 32.427 0 0 0 -4.053 -16.043 46.507 46.507 0 0 0 -30.549 -24.704 51.2 51.2 0 0 0 -13.696 -0.725 42.667 42.667 0 0 0 -36.139 24.576c-3.328 6.784 -3.712 8.405 -4.096 17.365 -0.64 16.341 4.224 27.435 16.512 37.419 6.912 5.632 14.933 8.576 24.917 9.173 6.869 0.427 8.277 0.811 9.387 2.603 1.792 2.901 20.096 28.117 32.683 45.056l10.283 13.909v44.203l-6.741 3.328a123.733 123.733 0 0 0 -36.352 29.781l-3.413 4.181 -30.336 -30.891 -30.336 -30.891 1.707 -7.083a42.667 42.667 0 0 0 -11.051 -40.917c-23.936 -25.088 -66.389 -14.635 -75.008 18.517 -4.352 16.683 0.597 33.877 13.013 45.227a42.667 42.667 0 0 0 48.128 7.723l5.76 -2.645 27.989 27.989 27.989 27.989 -5.845 5.888a68.267 68.267 0 0 0 -14.635 20.736 72.533 72.533 0 0 0 -5.547 42.709l1.621 7.765 -5.419 6.4a78.507 78.507 0 0 0 -15.232 30.592c-4.693 22.229 3.541 49.664 19.413 64.725l4.48 4.224 -0.171 9.899c-0.341 19.541 5.845 34.987 19.371 48.597q20.736 20.779 49.024 19.2c4.949 -0.299 9.685 -0.768 10.496 -1.067q1.493 -0.555 6.016 5.547c15.104 20.48 41.941 30.891 64.939 25.173 5.803 -1.451 16.725 -6.357 21.12 -9.515 1.237 -0.896 2.688 -0.384 6.997 2.475 8.064 5.333 15.915 7.765 26.923 8.363 11.947 0.64 20.352 -1.237 31.189 -6.869a64 64 0 0 0 23.467 -21.931c2.773 -4.48 4.096 -5.803 5.291 -5.291 0.853 0.384 5.675 0.896 10.667 1.152 18.048 0.939 33.963 -5.248 46.933 -18.219 12.629 -12.629 17.792 -24.363 19.157 -43.648l0.64 -9.301 7.125 -7.04c15.403 -15.189 22.485 -31.829 22.528 -53.163a66.987 66.987 0 0 0 -17.707 -44.501l-4.309 -4.608 1.621 -6.869c1.152 -4.864 1.493 -9.643 1.152 -16.384 -0.853 -16.896 -7.424 -30.677 -21.077 -44.373l-6.869 -6.869 7.339 -7.552a2408.149 2408.149 0 0 1 31.701 -32.597l19.328 -19.669 5.333 2.603c33.067 16.171 71.381 -15.872 61.995 -51.883 -2.261 -8.704 -5.163 -13.525 -12.416 -20.779s-13.312 -10.197 -24.832 -12.203c-20.139 -3.541 -41.643 10.069 -48.597 30.72a52.907 52.907 0 0 0 -0.213 25.088l1.451 4.821 -13.227 13.781c-29.824 31.147 -55.168 57.344 -55.68 57.6 -0.299 0.128 -1.664 -2.347 -2.987 -5.504a81.067 81.067 0 0 0 -30.251 -34.944l-6.741 -4.395V271.701l7.381 -9.685c4.053 -5.333 13.952 -18.645 22.059 -29.653l14.677 -19.968 7.68 0.256c13.568 0.469 23.765 -3.413 33.451 -12.629a43.947 43.947 0 0 0 1.792 -61.483c-28.203 -30.805 -78.763 -10.624 -78.336 31.275a42.667 42.667 0 0 0 7.68 24.96l3.413 5.419 -12.245 16.043c-24.107 31.616 -31.061 41.131 -33.28 45.483 -2.176 4.224 -2.261 5.504 -2.261 27.605v23.168l-11.733 0.597a106.667 106.667 0 0 0 -28.501 5.205c-1.664 0.64 -1.749 -3.456 -1.749 -77.696V162.176l5.077 -1.835c11.008 -3.968 22.528 -15.573 26.795 -26.965a46.933 46.933 0 0 0 -19.456 -55.595 46.08 46.08 0 0 0 -33.92 -5.632m2.987 28.117a25.6 25.6 0 0 0 -6.272 5.163c-10.837 12.16 -1.92 31.317 14.507 31.317 14.592 0 23.253 -17.28 14.976 -29.824 -4.693 -7.083 -15.957 -10.325 -23.253 -6.656m-134.4 50.859a25.6 25.6 0 0 0 -10.581 10.752 19.2 19.2 0 0 0 6.272 21.845 18.773 18.773 0 0 0 19.627 0.939 18.091 18.091 0 0 0 4.395 -28.331 17.493 17.493 0 0 0 -19.712 -5.205m266.837 1.749c-15.147 9.6 -9.643 32.64 8.107 33.92 15.915 1.152 25.557 -14.763 17.067 -28.16a17.92 17.92 0 0 0 -25.131 -5.76M270.507 260.523a18.773 18.773 0 0 0 -10.24 18.987c1.195 10.709 12.629 18.987 22.571 16.299a19.029 19.029 0 0 0 6.485 -33.536c-4.437 -3.413 -14.08 -4.309 -18.773 -1.749m466.517 -0.384a19.2 19.2 0 0 0 -11.349 17.408c-0.085 5.973 2.176 10.411 7.467 14.72 7.595 6.144 16.384 5.547 23.467 -1.579 5.461 -5.461 7.211 -11.051 5.504 -17.451 -1.408 -5.205 -2.901 -7.211 -8.533 -11.307a11.947 11.947 0 0 0 -9.003 -2.773 25.6 25.6 0 0 0 -7.595 1.067m-293.504 82.688c-12.032 3.541 -21.803 9.899 -36.395 23.68l-8.405 7.893 5.077 7.765c6.229 9.515 9.045 17.707 10.24 29.909 0.896 9.088 1.067 9.429 4.821 13.013 2.133 2.005 5.717 4.181 7.893 4.779 15.957 4.309 27.008 14.379 31.744 28.971 3.413 10.539 0.341 28.117 -5.931 34.005 -3.413 3.2 -11.179 3.755 -15.317 1.152 -5.333 -3.371 -6.784 -7.595 -5.675 -16.981 1.664 -14.037 -0.64 -18.005 -12.16 -20.992 -9.771 -2.56 -13.269 -4.224 -18.645 -9.003 -7.253 -6.443 -11.477 -15.872 -13.184 -29.568a85.333 85.333 0 0 0 -2.56 -13.995c-1.451 -3.712 -5.803 -9.515 -7.125 -9.515 -2.475 0 -11.861 10.496 -15.019 16.768s-3.371 7.381 -3.371 16.725c0 9.173 0.256 10.581 3.2 16.725 3.2 6.784 9.899 14.379 19.456 22.016 3.712 2.944 4.779 4.565 5.333 7.723a14.293 14.293 0 0 1 -13.696 16.043c-5.419 0 -12.331 -3.797 -19.541 -10.709l-6.101 -5.888 -3.029 5.035a42.667 42.667 0 0 0 -5.077 30.421c2.091 9.003 6.059 15.317 16 25.259 11.008 11.051 11.648 12.587 9.301 22.613a36.267 36.267 0 0 0 9.728 35.755c5.675 6.016 15.403 10.923 23.765 11.989 5.333 0.683 5.376 0.683 4.736 -1.664a46.933 46.933 0 0 1 -0.64 -19.371c2.091 -7.424 8.917 -11.008 16.384 -8.533 5.632 1.877 8.32 5.888 9.131 13.781 1.365 13.568 6.443 24.32 15.957 33.877 8.107 8.192 16.469 12.373 26.027 13.099 12.373 0.939 23.211 -4.395 25.472 -12.544 0.64 -2.347 1.024 -35.712 1.024 -93.909l0.043 -90.24h-2.261c-5.589 -0.043 -16.939 -3.285 -24.448 -6.997 -18.859 -9.301 -30.635 -28.032 -29.013 -46.037q1.365 -15.019 13.227 -14.976c8.064 0 13.483 5.845 13.483 14.549 0 12.203 10.411 22.741 24.747 25.003l4.139 0.683 0.085 -28.459c0.085 -32.725 1.109 -29.483 -11.008 -35.243 -13.611 -6.443 -30.208 -8.277 -42.453 -4.651m105.984 -1.28c-10.197 2.091 -16.768 3.968 -20.736 6.016l-4.736 2.389v150.144l3.243 -0.683c6.229 -1.365 13.312 -5.803 20.736 -13.013 9.941 -9.643 13.739 -11.093 20.736 -7.765 7.083 3.371 9.088 10.965 5.077 19.243 -2.901 5.973 -13.824 16.811 -21.419 21.248a72.533 72.533 0 0 1 -23.595 8.533l-4.779 0.555v47.147c0 43.989 0.128 47.36 1.877 50.603 6.059 11.392 27.648 13.355 40.32 3.669 4.437 -3.371 8.789 -9.813 8.789 -13.013a25.6 25.6 0 0 0 -4.096 -7.851c-12.629 -18.56 -14.72 -39.424 -4.437 -44.288 6.528 -3.115 13.525 -1.237 16.853 4.437 0.896 1.493 2.133 5.163 2.773 8.107 3.84 18.048 18.219 28.203 35.243 24.875a39.253 39.253 0 0 0 27.179 -20.267c2.133 -4.565 3.285 -10.752 2.048 -10.752 -0.213 0 -3.243 0.725 -6.741 1.621 -8.107 2.091 -19.328 1.451 -27.136 -1.579a39.253 39.253 0 0 1 -25.472 -40.405c1.323 -20.139 10.155 -31.147 40.704 -50.603 12.373 -7.851 20.48 -15.616 24.704 -23.552 9.856 -18.56 7.936 -37.547 -5.376 -53.248 -6.4 -7.552 -7.851 -8.107 -11.477 -4.523 -2.603 2.603 -2.816 3.243 -1.835 5.717 1.707 4.48 2.347 19.499 1.152 25.984a41.813 41.813 0 0 1 -18.944 28.331c-21.461 12.587 -49.963 4.821 -59.264 -16.171 -3.285 -7.467 -3.968 -13.568 -2.816 -25.301 0.597 -5.931 1.152 -17.195 1.237 -25.088l0.128 -14.336 3.755 -3.413c3.115 -2.859 4.48 -3.413 8.32 -3.413q8.789 0 12.16 6.272c2.475 4.565 2.944 25.813 0.939 39.253 -1.408 9.259 -1.408 10.24 0.171 13.44 2.603 5.291 6.443 7.552 12.715 7.552 6.016 0 9.472 -1.963 13.269 -7.509q4.096 -6.101 0.64 -19.371a42.667 42.667 0 0 1 -1.024 -14.635c2.133 -31.317 -20.309 -55.296 -51.371 -54.869a85.333 85.333 0 0 0 -9.515 0.512m123.136 141.141c-3.627 5.717 -14.037 14.123 -27.136 21.888 -21.717 12.885 -27.52 18.731 -27.52 27.819 0 6.272 2.389 9.856 8.405 12.587 5.461 2.475 11.051 2.347 19.84 -0.427 20.651 -6.443 35.797 -25.429 35.797 -44.587a38.4 38.4 0 0 0 -5.376 -19.499c-1.28 -1.749 -1.536 -1.621 -4.011 2.304m-285.312 31.275c-5.291 2.603 -7.765 7.381 -7.083 13.653 0.939 8.149 10.112 16.469 22.443 20.267 7.851 2.432 13.568 2.517 23.851 0.384q30.72 -6.315 33.451 21.291c1.152 11.563 5.205 15.701 14.763 15.019 10.155 -0.725 14.165 -8.235 11.691 -21.973a85.333 85.333 0 0 0 -2.901 -11.691c-5.376 -14.805 -21.205 -28.715 -36.352 -31.915a41.387 41.387 0 0 0 -21.717 0.896c-11.605 2.987 -15.872 2.731 -19.243 -1.152a23.04 23.04 0 0 0 -12.757 -6.827 21.333 21.333 0 0 0 -6.187 2.048m-165.077 114.517c-2.389 2.176 -6.571 10.581 -17.067 34.389 -7.637 17.323 -15.488 34.859 -17.408 38.997 -9.003 19.371 -46.165 102.997 -47.488 106.837 -2.816 8.192 0.512 15.872 8.021 18.517 3.371 1.195 11.733 1.621 41.216 2.048 48.043 0.683 74.069 2.859 107.989 9.088 40.32 7.424 89.899 24.704 120.789 42.197 4.523 2.56 11.307 6.144 15.061 8.021 3.797 1.877 6.656 3.584 6.357 3.883s-4.949 -0.64 -10.368 -2.091c-44.8 -11.733 -90.027 -18.389 -146.347 -21.504 -24.661 -1.365 -147.285 -1.365 -152.235 0q-7.936 2.176 -11.776 11.136a18.773 18.773 0 0 0 11.776 25.813c2.304 0.64 32.64 1.152 79.701 1.408 87.168 0.469 99.669 1.195 145.493 8.235 39.509 6.059 71.381 14.208 135.637 34.688 20.907 6.656 19.371 6.613 37.888 0.683 80.128 -25.728 108.117 -32.555 158.976 -38.955 33.408 -4.181 55.083 -5.035 130.517 -5.035h71.552l4.437 -2.261a19.499 19.499 0 0 0 5.888 -30.208c-6.187 -7.04 -2.475 -6.784 -92.075 -6.272 -46.635 0.299 -86.016 0.939 -93.867 1.621 -41.216 3.456 -80.597 10.069 -119.509 20.011 -8.235 2.133 -15.104 3.755 -15.232 3.627a455.04 455.04 0 0 1 157.227 -57.984c22.357 -3.755 50.133 -5.547 99.072 -6.4l37.077 -0.64 3.584 -2.475a15.787 15.787 0 0 0 6.741 -11.861c0 -4.651 -1.493 -8.192 -51.413 -119.637l-26.283 -58.795a25.6 25.6 0 0 0 -5.163 -6.912l-3.541 -3.115 -22.059 0.597a426.667 426.667 0 0 0 -34.048 2.219c-77.909 10.411 -144.939 41.429 -210.176 97.195l-15.957 13.611 -3.371 2.816 -13.269 -11.648c-59.989 -52.651 -120.363 -83.968 -187.947 -97.451a298.667 298.667 0 0 0 -61.397 -6.741l-24.064 -0.597zm18.859 36.608c-2.133 4.565 -8.832 19.499 -14.891 33.28l-26.624 60.501 -16.128 36.608c-0.341 0.768 8.32 1.28 28.843 1.707 36.309 0.811 65.237 3.413 91.307 8.235 8.832 1.664 9.941 1.877 33.579 7.424 11.733 2.731 36.309 10.965 54.4 18.219 29.227 11.733 64.896 30.464 91.733 48.256l11.264 7.467 0.256 -57.685 0.256 -57.685 -4.267 -3.755a1024 1024 0 0 0 -48.768 -38.827c-49.664 -35.456 -102.187 -57.941 -156.117 -66.859a384 384 0 0 0 -37.205 -4.565l-3.797 -0.469zm522.965 -6.656c-35.413 3.755 -66.987 11.563 -100.907 24.875 -40.96 16.085 -85.419 44.501 -127.317 81.408l-9.771 8.619v115.371l13.269 -8.747c31.147 -20.608 63.317 -37.632 94.251 -49.92 59.861 -23.723 112.341 -33.109 185.813 -33.152 19.797 0 20.779 -0.085 20.224 -1.877 -0.341 -1.024 -3.499 -8.32 -7.083 -16.256l-19.157 -42.88c-26.368 -59.52 -34.987 -78.379 -35.883 -78.592a213.333 213.333 0 0 0 -13.44 1.152" fill="#ffffff" fill-rule="evenodd"/></svg>