<?xml version="1.0" encoding="UTF-8" standalone="no"?>
<!-- Created with Inkscape (http://www.inkscape.org/) -->

<svg
   xmlns:dc="http://purl.org/dc/elements/1.1/"
   xmlns:cc="http://creativecommons.org/ns#"
   xmlns:rdf="http://www.w3.org/1999/02/22-rdf-syntax-ns#"
   xmlns:svg="http://www.w3.org/2000/svg"
   xmlns="http://www.w3.org/2000/svg"
   xmlns:sodipodi="http://sodipodi.sourceforge.net/DTD/sodipodi-0.dtd"
   xmlns:inkscape="http://www.inkscape.org/namespaces/inkscape"
   width="210mm"
   height="297mm"
   viewBox="0 0 210 297"
   version="1.1"
   id="svg8"
   inkscape:version="0.92.4 (5da689c313, 2019-01-14)"
   sodipodi:docname="JNU.svg">
  <title
     id="title4616">JNU Logo</title>
  <defs
     id="defs2">
    <pattern
       y="0"
       x="0"
       height="6"
       width="6"
       patternUnits="userSpaceOnUse"
       id="EMFhbasepattern" />
  </defs>
  <sodipodi:namedview
     id="base"
     pagecolor="#ffffff"
     bordercolor="#666666"
     borderopacity="1.0"
     inkscape:pageopacity="0.0"
     inkscape:pageshadow="2"
     inkscape:zoom="0.5"
     inkscape:cx="708.29013"
     inkscape:cy="32.387217"
     inkscape:document-units="mm"
     inkscape:current-layer="g4605"
     showgrid="false"
     inkscape:window-width="1366"
     inkscape:window-height="715"
     inkscape:window-x="-8"
     inkscape:window-y="-8"
     inkscape:window-maximized="1" />
  <metadata
     id="metadata5">
    <rdf:RDF>
      <cc:Work
         rdf:about="">
        <dc:format>image/svg+xml</dc:format>
        <dc:type
           rdf:resource="http://purl.org/dc/dcmitype/StillImage" />
        <dc:title>JNU Logo</dc:title>
        <cc:license
           rdf:resource="http://creativecommons.org/licenses/by-nc-sa/4.0/" />
      </cc:Work>
      <cc:License
         rdf:about="http://creativecommons.org/licenses/by-nc-sa/4.0/">
        <cc:permits
           rdf:resource="http://creativecommons.org/ns#Reproduction" />
        <cc:permits
           rdf:resource="http://creativecommons.org/ns#Distribution" />
        <cc:requires
           rdf:resource="http://creativecommons.org/ns#Notice" />
        <cc:requires
           rdf:resource="http://creativecommons.org/ns#Attribution" />
        <cc:prohibits
           rdf:resource="http://creativecommons.org/ns#CommercialUse" />
        <cc:permits
           rdf:resource="http://creativecommons.org/ns#DerivativeWorks" />
        <cc:requires
           rdf:resource="http://creativecommons.org/ns#ShareAlike" />
      </cc:License>
    </rdf:RDF>
  </metadata>
  <g
     inkscape:label="Layer 1"
     inkscape:groupmode="layer"
     id="layer1">
    <g
       id="g4614"
       transform="translate(15,-4.1523373)"
       style="fill:#1d1f5a;fill-opacity:1">
      <path
         sodipodi:nodetypes="ccccccsccccccscscccssccccccccsscccsscssccscac"
         inkscape:connector-curvature="0"
         id="path826"
         d="M 0,8.3046746 V 16.103177 124.1245 217.40568 239.8202 l 0.05864555,0.12484 C 16.227094,274.27247 51.038193,297 90.001528,297 128.9648,297 163.77345,274.27238 179.94136,239.94504 L 180,239.82094 V 222.12333 124.1245 16.103177 8.3046746 h -7.79851 c -31.23536,0 -60.70055,12.5340984 -82.201503,34.0372374 C 68.499055,20.838773 39.033872,8.3046746 7.7984999,8.3046746 Z M 15.599289,24.416549 c 24.470243,1.904279 47.212062,12.54449 64.100964,29.727077 -2.904816,3.822176 -5.592447,7.84549 -8.033089,12.062207 -20.736046,35.825867 -20.736046,80.012257 0,115.838117 2.440689,4.21681 5.128206,8.23996 8.033089,12.06221 -16.888902,17.18177 -39.630721,27.81975 -64.100964,29.72402 V 124.1245 Z m 148.804481,0 v 99.707951 99.70568 c -24.47199,-1.90371 -47.2136,-12.5431 -64.10249,-29.72632 2.90424,-3.82159 5.59134,-7.84392 8.03157,-12.05991 20.73604,-35.82586 20.73604,-80.01225 0,-115.838117 -2.44029,-4.216097 -5.12726,-8.239014 -8.03157,-12.060673 16.88889,-17.184032 39.6305,-27.824892 64.10249,-29.728611 z M 90.001529,66.479267 c 1.712944,2.426458 3.327662,4.941098 4.833404,7.542594 17.953427,31.018309 17.953427,69.187749 0,100.206059 -1.505742,2.60148 -3.12046,5.11617 -4.833404,7.5426 -1.71296,-2.42649 -3.32763,-4.94104 -4.83341,-7.5426 -17.953436,-31.01831 -17.953431,-69.18775 0,-100.206059 1.50578,-2.601569 3.12045,-5.116062 4.83341,-7.542594 z m -0.0016,139.428603 c 19.206721,19.20867 44.768811,31.25863 72.271151,33.61148 -14.6612,25.41947 -41.8218,41.88143 -72.269626,41.88143 -30.447821,0 -57.610115,-16.46196 -72.271913,-41.88143 27.5021,-2.35299 53.063823,-14.40296 72.270388,-33.61148 z"
         style="color:#000000;font-style:normal;font-variant:normal;font-weight:normal;font-stretch:normal;font-size:medium;line-height:normal;font-family:sans-serif;font-variant-ligatures:normal;font-variant-position:normal;font-variant-caps:normal;font-variant-numeric:normal;font-variant-alternates:normal;font-feature-settings:normal;text-indent:0;text-align:start;text-decoration:none;text-decoration-line:none;text-decoration-style:solid;text-decoration-color:#000000;letter-spacing:normal;word-spacing:normal;text-transform:none;writing-mode:lr-tb;direction:ltr;text-orientation:mixed;dominant-baseline:auto;baseline-shift:baseline;text-anchor:start;white-space:normal;shape-padding:0;clip-rule:nonzero;display:inline;overflow:visible;visibility:visible;opacity:1;isolation:auto;mix-blend-mode:normal;color-interpolation:sRGB;color-interpolation-filters:linearRGB;solid-color:#000000;solid-opacity:1;vector-effect:none;fill:#1d1f5a;fill-opacity:1;fill-rule:nonzero;stroke:none;stroke-width:15.59852791;stroke-linecap:square;stroke-linejoin:miter;stroke-miterlimit:4;stroke-dasharray:none;stroke-dashoffset:0;stroke-opacity:1;color-rendering:auto;image-rendering:auto;shape-rendering:auto;text-rendering:auto;enable-background:accumulate" />
      <g
         transform="matrix(1.4738768,0,0,1.4738768,-63.142708,-24.892586)"
         id="g4605"
         style="fill:#1d1f5a;fill-opacity:1">
        <path
           id="path833"
           d="m 79.699762,173.94685 h 12.409837 v 1.36768 h -1.053831 v 9.21563 h -1.720059 v -5.71498 h -1.9926 c 0.0545,0.0815 0.442129,1.18859 0.442129,1.96198 0,1.5305 -1.047783,2.81679 -2.489235,2.81679 -3.434054,-0.0897 -4.65142,-5.97551 -4.65142,-5.97551 l 1.435396,-0.94436 c -0.05452,0 1.053837,5.46263 3.046437,5.46263 0.666222,0 0.999332,-0.42333 0.999332,-1.27814 0,-1.44911 -1.386949,-3.41109 -1.44146,-3.41109 h 4.651421 v -2.13295 h -9.635947 z m 13.905802,8.70274 h 2.047113 v 1.96198 h -2.047113 z m 3.318986,-8.70274 h 9.69652 v 1.36768 h -0.99933 v 9.21563 h -1.77457 v -5.46262 h -3.04643 v 1.4491 c 0,0.0897 0,0.68385 -0.49665,0.68385 -0.605642,-0.0815 -2.325705,-2.30389 -2.325705,-2.81679 0,-0.76526 0.611709,-0.76526 0.720726,-0.76526 h 5.148059 v -2.30391 h -6.92262 z m 3.1615,-4.18449 1.21738,-1.01762 3.93069,5.20211 h -1.16286 z m 8.1945,12.88723 h 2.04712 v 1.96198 h -2.04712 z m 7.58884,-8.70274 h 8.80621 v 1.36768 h -1.05384 v 9.21563 h -1.71401 v -2.64583 c -1.88357,1.3677 -5.03903,0.51288 -5.03903,-2.39345 0,-2.38533 2.27122,-3.4925 4.14873,-2.8168 l 0.16958,1.45725 c 0,0 -0.38762,-0.43147 -1.16285,-0.43147 -1.93809,0 -1.88359,3.50063 0.10897,3.50063 1.16285,0 1.77457,-1.19672 1.77457,-1.27814 v -4.60782 h -6.03837 -0.0545 -0.99933 v 9.21563 h -1.7685 v -9.21563 h -1.44146 v -1.36768 h 1.44146 c 0,-0.0814 -0.27861,-0.85481 -0.27861,-1.62007 0,-1.96199 1.38088,-3.24011 3.59759,-3.24011 3.37953,0 8.08545,4.86018 8.08545,4.86018 h -1.71398 c 0,0 -4.2638,-3.50065 -6.37147,-3.50065 -1.3809,0 -1.99261,0.94438 -1.99261,2.05155 0,0.68384 0.2241,1.36768 0.2241,1.4491 h 1.21736 z m 10.24767,8.70274 h 1.99258 v 1.96198 h -1.99258 z"
           style="fill:#1d1f5a;fill-opacity:1;fill-rule:evenodd;stroke:none;stroke-width:0.18579713"
           inkscape:connector-curvature="0"
           sodipodi:nodetypes="cccccccscccssccccccccccccccccccscsscccccccccccccccccccccsccsssccccccccccssccssccccccccc" />
        <g
           aria-label="JNU"
           transform="matrix(0.31537804,0,0,0.31537804,-14.331973,-47.23088)"
           style="font-style:normal;font-variant:normal;font-weight:bold;font-stretch:normal;font-size:85.33333588px;line-height:1.25;font-family:'Nachlieli CLM';-inkscape-font-specification:'Nachlieli CLM Bold';letter-spacing:0px;word-spacing:0px;fill:#1d1f5a;fill-opacity:1;stroke:none"
           id="flowRoot880">
          <g
             id="g5225">
            <path
               id="path5215"
               style="font-style:normal;font-variant:normal;font-weight:bold;font-stretch:normal;font-size:64px;font-family:'Nachlieli CLM';-inkscape-font-specification:'Nachlieli CLM Bold';fill:#1d1f5a;fill-opacity:1"
               d="m 337.22844,747.6492 v 31.6477 c 0,3.22936 -1.70275,4.99083 -4.75596,4.99083 -3.34679,0 -4.75597,-1.64404 -4.75597,-5.57798 v -4.11009 h -8.80734 v 4.22752 c 0,4.46238 1.05689,7.22202 3.58166,9.57064 2.46605,2.23119 5.75412,3.40551 9.8055,3.40551 8.74862,0 13.73945,-4.52111 13.73945,-12.50643 v -31.6477 z" />
            <path
               id="path5217"
               style="font-style:normal;font-variant:normal;font-weight:bold;font-stretch:normal;font-size:64px;font-family:'Nachlieli CLM';-inkscape-font-specification:'Nachlieli CLM Bold';fill:#1d1f5a;fill-opacity:1"
               d="m 380.12867,790.45287 h 8.80734 V 747.6492 h -8.80734 v 29.12293 L 363.15986,747.6492 h -9.0422 v 42.80367 h 8.80734 v -29.59266 z" />
            <path
               id="path5219"
               style="font-style:normal;font-variant:normal;font-weight:bold;font-stretch:normal;font-size:64px;font-family:'Nachlieli CLM';-inkscape-font-specification:'Nachlieli CLM Bold';fill:#1d1f5a;fill-opacity:1"
               d="m 422.09266,747.6492 v 29.0055 c 0,5.16697 -2.6422,7.63303 -8.16147,7.63303 -5.51926,0 -8.16147,-2.46606 -8.16147,-7.63303 v -29.0055 h -8.80733 v 29.0055 c 0,4.81468 1.29174,8.22019 4.1688,10.80367 3.11193,2.81835 7.63303,4.34496 12.8,4.34496 5.16698,0 9.68808,-1.52661 12.8,-4.34496 2.87707,-2.58348 4.16881,-5.98899 4.16881,-10.80367 v -29.0055 z" />
          </g>
        </g>
      </g>
    </g>
    <flowRoot
       xml:space="preserve"
       id="flowRoot888"
       style="font-style:normal;font-weight:normal;font-size:40px;line-height:1.25;font-family:sans-serif;letter-spacing:0px;word-spacing:0px;fill:#000000;fill-opacity:1;stroke:none"
       transform="scale(0.26458333)"><flowRegion
         id="flowRegion890"><rect
           id="rect892"
           width="169.5"
           height="88.5"
           x="314.5"
           y="706.01971" /></flowRegion><flowPara
         id="flowPara894"></flowPara></flowRoot>  </g>
</svg>
