<?xml version="1.0" encoding="UTF-8"?>
<svg version="1.1" viewBox="0 0 1024 1024" width="1024" height="1024" xmlns="http://www.w3.org/2000/svg">
<path transform="translate(458,166)" d="m0 0h20l30 2 26 4 24 6 25 10 15 8 7 5h25l19 3 21 7 13 7 14 10 10 10 21 2 20 5 19 7 21 11 14 10 13 11 12 12 15 20 11 19 9 20 7 21 3 7 7 8 10 17 6 15 5 18 2 16v20l-3 21-6 20-9 19-8 12-8 10-9 10-7 7-13 10-13 8-16 8-18 6-18 4-17 2h-28l-24-3-22-5-3-1-2 4-9 9-11 9-14 10-16 9-21 8-19 5-14 2h-35l-21-3-24-6-15-5-4 1-9 8-17 12-16 9-19 7-16 6-14 8-16 13-17 16-14 13-14 11-13 8-12 5-8 2h-16l-13-4-9-6-9-9-7-14-3-15v-19l3-19 7-25 5-17-9-1-19-6-16-7-15-9-13-11-9-9-10-14-8-15-5-15-3-18-7-8-9-13-9-17-7-21-3-14-1-8v-30l3-18 5-17 7-17 8-14 12-16 12-13 11-10 4-4 7-16 10-16 9-11 9-10 11-10 17-12 19-10 21-8 20-6 31-6 16-11 15-8 23-9 20-6 26-5 19-2zm-3 47-23 2-26 5-27 9-15 8-14 11-6 7-27 2-24 5-17 6-21 11-12 9-10 9-9 10-7 11-8 16-4 13v2l-5 2-12 9-14 14-9 13-8 17-4 15-1 7v26l3 14 5 13 8 12 11 12 9 6v21l4 16 6 11 7 9 9 8 13 8 17 7 17 4 17 2h20v31l-4 25-6 23-7 21-2 8v11l2 4 8-1 13-9 13-12 12-12 2-1v-2l4-2 12-11 17-12 14-8 19-7 15-5 15-8 11-9 9-9 11-16 4-7 20 9 20 8 18 5 16 3 10 1h22l14-2 18-5 21-10 11-8 11-9 8-8 11-14 5-7 7 1 15 6 22 6 21 3h25l18-3 21-7 14-7 12-9 10-9 9-11 8-14 6-18 2-16-1-18-4-16-7-14-7-9-8-8-2-1-5-21-8-22-10-19-10-13-9-10-11-10-14-9-17-8-21-6-14-2h-31l-7-14-11-11-12-7-13-4-5-1h-25l-9 2h-5l-7-7-14-9-16-8-26-8-21-4-22-2z" fill="#2DA0D7"/>
<path transform="translate(656,383)" d="m0 0h15l13 4 10 7v2h2l6 9 4 9 1 4v16l-4 11-6 9-9 8-10 5-10 2h-8l-10-2-12-6-9-9-7-14-1-4v-16l4-12 8-11 8-6 8-4z" fill="#2DA0D7"/>
<path transform="translate(498,383)" d="m0 0h15l13 4 11 8 8 11 4 12v14l-4 13-7 10-8 7-10 5-9 2h-10l-12-3-11-7-7-7-6-11-2-8v-15l4-12 8-11 9-7 10-4z" fill="#2DA0D7"/>
<path transform="translate(347,383)" d="m0 0h15l13 4 11 8 7 10 4 10 1 6v9l-3 12-4 8-9 10-10 6-12 3h-10l-9-2-10-5-9-8-6-9-3-8-1-6v-12l3-10 6-10 4-5 8-6 9-4z" fill="#2DA0D7"/>
</svg>
